:FULLY-SPECIFIED
:FORCE-ALL-JOINTS-BE-3DOF
:DEGREES
781
root 1.68672 16.3212 18.3873 -7.63313 71.9119 -13.489
lfemur -34.916 8.51773 -12.119
ltibia 49.5254 -0 0
lfoot -21.6661 19.1492 -0.0151778
ltoes 12.9552 -0 0
rfemur -15.3739 -20.6533 20.9197
rtibia 51.1402 -0 0
rfoot -17.2623 -29.6212 -0.00365348
rtoes -26.5318 0 0
lowerback 1.1089 4.65872 -0.411198
upperback -0.740905 6.20155 -3.5808
thorax -1.02618 3.10826 -3.5552
lowerneck -5.44834 -6.34576 -0.417962
upperneck -1.88136 -8.39365 4.61847
head 0.548437 -4.1285 1.30659
lclavicle 0 0 0
lhumerus -55.9285 -11.6049 94.9697
lradius 70.5407 -0 0
lwrist 14.1406 0 0
lhand -22.3914 -4.23984 -0.00106253
lfingers 0 0 0
lthumb 4.03081 25.7015 -0.00105397
rclavicle 0 0 0
rhumerus -31.8173 48.0651 -113.505
rradius 79.8343 -0 0
rwrist 5.40401 0 0
rhand -24.1356 -20.4129 0.00171734
rfingers 0 0 0
rthumb 2.34631 -50.3767 0.0019465
782
root 1.56195 16.4251 18.7269 -6.92467 71.2113 -12.761
lfemur -34.7552 8.09737 -11.9151
ltibia 49.3533 0 0
lfoot -21.4598 18.982 0
ltoes 12.5952 0 0
rfemur -15.3768 -20.4284 20.8538
rtibia 50.9662 0 0
rfoot -17.3185 -29.4731 0
rtoes -26.7349 0 0
lowerback 1.10842 4.65497 -0.379799
upperback -0.72826 6.19675 -3.56839
thorax -1.01115 3.10542 -3.55875
lowerneck -5.45462 -6.31936 -0.392726
upperneck -1.88461 -8.36009 4.59432
head 0.544855 -4.11239 1.29564
lclavicle 4.27387e-14 -7.95139e-14 0
lhumerus -55.9593 -11.6075 94.9847
lradius 70.5457 0 0
lwrist 14.154 0 0
lhand -22.4439 -4.19366 0
lfingers 7.12502 0 0
lthumb 3.98011 25.7489 0
rclavicle 4.27387e-14 -7.95139e-14 0
rhumerus -31.8993 47.9666 -113.615
rradius 79.8441 0 0
rwrist 5.3452 0 0
rhand -24.2923 -20.4379 0
rfingers 7.12502 0 0
rthumb 2.19506 -50.406 0
783
root 1.53319 16.4497 18.8169 -5.45875 69.4065 -11.4359
lfemur -34.9665 7.18748 -11.6441
ltibia 49.585 -0 0
lfoot -21.3921 17.6953 -0.0118571
ltoes 12.4206 -0 0
rfemur -15.4743 -19.8054 20.8396
rtibia 50.6221 -0 0
rfoot -17.5573 -28.7244 -0.024168
rtoes -26.5571 0 0
lowerback 0.952949 4.65388 -0.239994
upperback -0.74996 6.19897 -3.48991
thorax -0.940387 3.1062 -3.54217
lowerneck -5.47939 -6.22313 -0.326499
upperneck -1.81254 -8.23985 4.49801
head 0.56209 -4.05287 1.25689
lclavicle 0 0 0
lhumerus -55.9794 -11.4747 94.9097
lradius 70.4782 -0 0
lwrist 14.4955 0 0
lhand -22.2246 -3.9508 0.00717605
lfingers 0 0 0
lthumb 4.19182 25.986 0.00676501
rclavicle 0 0 0
rhumerus -32.1788 47.8422 -113.783
rradius 79.6148 -0 0
rwrist 5.24376 0 0
rhand -24.2194 -20.6701 -0.00228136
rfingers 0 0 0
rthumb 2.26549 -50.6373 -0.00219478
784
root 1.51115 16.4702 18.9047 -3.73455 66.805 -9.91483
lfemur -35.2761 5.88618 -11.251
ltibia 49.9168 -0 0
lfoot -21.2946 15.8525 -0.0261821
ltoes 12.1706 -0 0
rfemur -15.6136 -18.9132 20.8175
rtibia 50.1293 -0 0
rfoot -17.8998 -27.6521 -0.0533398
rtoes -26.3025 0 0
lowerback 0.730295 4.65297 -0.0397753
upperback -0.781032 6.2022 -3.37751
thorax -0.839046 3.10728 -3.51843
lowerneck -5.51467 -6.08526 -0.231749
upperneck -1.70972 -8.06744 4.36041
head 0.586701 -3.96761 1.20143
lclavicle 0 0 0
lhumerus -56.0084 -11.2845 94.8022
lradius 70.3814 -0 0
lwrist 14.9846 0 0
lhand -21.9106 -3.60297 0.015834
lfingers 0 0 0
lthumb 4.49505 26.3257 0.014927
rclavicle 0 0 0
rhumerus -32.577 47.6631 -114.021
rradius 79.2865 -0 0
rwrist 5.09849 0 0
rhand -24.1149 -21.0026 -0.00503374
rfingers 0 0 0
rthumb 2.36637 -50.9686 -0.00484269
